HIERARCHY
ROOT Hips
{
  OFFSET -31.5692 30.0904 122.763
  CHANNELS 6 Xposition Yposition Zposition Zrotation Xrotation Yrotation
  JOINT LeftUpLeg
  {
    OFFSET 8.64259 1.95398 -2.38835
    CHANNELS 3 Zrotation Xrotation Yrotation
    JOINT LeftLeg
    {
      OFFSET 43.7702 0 0
      CHANNELS 3 Zrotation Xrotation Yrotation
      JOINT LeftFoot
      {
        OFFSET 40.6238 0 0
        CHANNELS 3 Zrotation Xrotation Yrotation
        JOINT LeftToeBase
        {
          OFFSET 12.7242 0 0
          CHANNELS 3 Zrotation Xrotation Yrotation
          End Site
          {
            OFFSET 0 0 0
          }
        }
      }
    }
  }
  JOINT RightUpLeg
  {
    OFFSET -8.2249 1.95398 -2.59336
    CHANNELS 3 Zrotation Xrotation Yrotation
    JOINT RightLeg
    {
      OFFSET 43.5653 0 0
      CHANNELS 3 Zrotation Xrotation Yrotation
      JOINT RightFoot
      {
        OFFSET 40.6238 0 0
        CHANNELS 3 Zrotation Xrotation Yrotation
        JOINT RightToeBase
        {
          OFFSET 12.7242 0 0
          CHANNELS 3 Zrotation Xrotation Yrotation
          End Site
          {
            OFFSET 0 0 0
          }
        }
      }
    }
  }
  JOINT Spine
  {
    OFFSET 0.165834 0.87714 6.61349
    CHANNELS 3 Zrotation Xrotation Yrotation
    JOINT Spine1
    {
      OFFSET 7.38963 1.71661e-005 0
      CHANNELS 3 Zrotation Xrotation Yrotation
      JOINT Spine2
      {
        OFFSET 11.9445 1.14441e-005 0
        CHANNELS 3 Zrotation Xrotation Yrotation
        JOINT Spine3
        {
          OFFSET 14.7254 4.19617e-005 0
          CHANNELS 3 Zrotation Xrotation Yrotation
          JOINT Spine4
          {
            OFFSET 10.9679 0 0
            CHANNELS 3 Zrotation Xrotation Yrotation
            JOINT RightShoulder
            {
              OFFSET 2.46616 -1.6653 3.69651
              CHANNELS 3 Zrotation Xrotation Yrotation
              JOINT RightArm
              {
                OFFSET 13.0012 0 0
                CHANNELS 3 Zrotation Xrotation Yrotation
                JOINT RightForeArm
                {
                  OFFSET 28.7848 1.62311e-005 0
                  CHANNELS 3 Zrotation Xrotation Yrotation
                  JOINT RightHand
                  {
                    OFFSET 26.5688 1.62095e-005 0
                    CHANNELS 3 Zrotation Xrotation Yrotation
                    End Site
                    {
                      OFFSET 0 0 0
                    }
                  }
                }
              }
            }
            JOINT LeftShoulder
            {
              OFFSET 2.38034 -1.29275 -3.7523
              CHANNELS 3 Zrotation Xrotation Yrotation
              JOINT LeftArm
              {
                OFFSET 16.3182 6.07031e-005 0
                CHANNELS 3 Zrotation Xrotation Yrotation
                JOINT LeftForeArm
                {
                  OFFSET 27.0901 0 0
                  CHANNELS 3 Zrotation Xrotation Yrotation
                  JOINT LeftHand
                  {
                    OFFSET 24.5451 1.51738e-005 0
                    CHANNELS 3 Zrotation Xrotation Yrotation
                    End Site
                    {
                      OFFSET 0 0 0
                    }
                  }
                }
              }
            }
            JOINT Neck
            {
              OFFSET 5.0226 -0.0266342 0
              CHANNELS 3 Zrotation Xrotation Yrotation
              JOINT Head
              {
                OFFSET 6.69364 2.86102e-005 0
                CHANNELS 3 Zrotation Xrotation Yrotation
                End Site
                {
                  OFFSET 0 0 0
                }
              }
            }
          }
        }
      }
    }
  }
}
MOTION
Frames:	6
Frame Time:	0.0416667
-320.411 88.5637 -299.206 -109.197 60.0751 -75.0529 -167.048 2.19707 98.5142 116.489 -71.5862 -165.601 -9.85285 -24.0721 -62.73 -131.226 -5.376 -48.5193 -166.497 30.886 93.3274 -65.6679 -23.8212 -10.2081 69.1186 -9.64092 -3.52108 27.0313 -0.235828 4.84039 3.41992 12.82 -91.3603 1.27828 6.30875 -2.44842 -10.3802 6.19491 -2.72454 -33.0373 6.75171 -0.431171 -13.0247 6.75172 -0.431179 99.9221 15.529 -101.636 54.1383 31.8275 -4.85597 -33.3353 -17.1958 -70.5111 -29.2255 5.0495 -32.1135 -96.1174 -31.4816 62.5913 -46.6572 -0.543477 -66.5842 59.9021 41.2422 -55.8355 25.8298 -13.4792 -50.0462 29.5249 1.66336 23.4801 21.9172 -9.05586 -6.28452 
-315.965 89.888 -294.661 -108.642 57.9608 -76.5596 -165.545 -3.15467 97.3832 -82.55 -70.0401 -7.59923 29.8965 -30.117 -101.093 -24.4668 12.0954 -36.9568 -167.757 30.6133 91.6361 -57.2819 -25.3257 -9.63346 63.3664 -5.79336 -1.68465 25.0178 0.384862 5.77315 2.26533 12.8775 -90.6562 1.13124 4.27231 -1.13249 -10.5334 4.21831 -1.31972 -33.1243 4.41469 0.206283 -13.1116 4.4147 0.206284 99.4709 10.3896 -98.7607 62.0335 24.6392 -3.10132 -35.9069 -17.9003 -74.6782 -29.1284 5.81807 -36.6867 -90.5205 -26.5936 71.0746 -44.7518 -5.18172 -74.8185 59.2181 35.4581 -58.7744 28.9666 -17.2225 -54.9967 37.2889 5.05847 18.6755 17.563 -5.28353 -8.22136 
-310.992 90.8906 -288.538 -110.327 53.9808 -75.6572 -165.862 -5.26342 91.4791 -67.3837 -3.39492 -0.2702 104.16 18.8048 -16.0299 16.0932 -9.0652 0.750658 -170.759 28.9453 90.6259 -47.1214 -28.1306 -9.37815 55.4852 0.728787 0.134584 20.9445 1.708 7.09537 0.82773 12.9129 -89.8199 1.04307 1.71991 0.410267 -10.6268 1.73628 0.334143 -33.1688 1.5171 0.908332 -13.1562 1.5171 0.908341 98.769 0.517009 -96.9185 62.9777 16.3821 -1.15759 -37.7268 -14.7643 -80.7706 -27.7405 6.18388 -40.7425 -83.5219 -15.5601 82.9087 -38.2488 -11.6815 -76.2054 50.6899 28.1895 -60.3291 29.8659 -16.6441 -51.5455 47.7728 6.14884 5.74015 6.63034 1.95049 -6.35515 
-305.771 93.4235 -282.197 -111.768 50.0477 -72.6319 -167.849 -5.98953 91.97 -62.9874 17.626 0.869674 81.7573 17.6774 13.9557 19.4545 -4.32427 -0.455578 -175.069 21.517 90.7189 -27.8911 -36.9312 -7.78438 52.7701 3.29831 2.46913 17.1288 3.4696 6.45505 0.204501 12.5601 -89.6095 1.75029 0.558684 0.772479 -9.92076 0.592129 0.74714 -32.4544 0.3007 0.904674 -12.4418 0.300691 0.90466 97.1409 -11.8669 -96.8404 56.2178 14.871 3.58428 -31.8421 -10.5778 -81.7546 -22.8975 5.56121 -43.136 -80.9641 -4.3507 86.3793 -29.3496 -12.3384 -66.9105 51.6762 28.0782 -61.6715 30.6281 -16.5677 -50.1953 49.9118 2.35744 -7.62279 -4.09696 6.58682 -0.140496 
-299.589 95.5905 -275.743 -107.934 46.8883 -72.1984 -169.147 -1.03074 95.0673 -56.5088 10.9152 1.96377 74.1158 8.28317 4.66241 24.2576 -2.28757 0.329232 -174.832 21.8909 92.2216 -30.975 -33.4832 -8.63923 59.0756 -0.231327 -0.267567 10.5546 5.75318 7.7571 0.0752189 11.6153 -89.9785 3.64312 0.158788 0.0423773 -8.02781 0.160486 0.0353347 -30.563 0.1387 0.0881329 -10.5504 0.138716 0.0881432 94.971 -23.2649 -98.5496 46.6907 14.6052 4.65051 -32.8867 -9.46172 -83.3603 -29.5256 7.39119 -41.5783 -81.6136 -3.80611 84.4512 -15.3587 -4.63116 -52.4883 45.845 25.1747 -59.5994 29.5165 -16.0428 -50.5367 46.4678 -0.174152 -15.3258 -9.43491 8.05322 5.0361 
-292.537 93.912 -267.902 -106.896 45.4515 -72.6248 -170.259 3.85822 94.5123 -55.5771 14.1248 2.1385 76.7114 11.6982 6.98282 36.781 1.36227 9.09812 -177.087 26.0903 91.7704 -53.437 -17.8796 -6.83684 66.6522 -3.66787 -1.79791 17.2522 3.08925 7.4729 -0.162987 10.9836 -89.6628 4.90642 -0.187323 0.667573 -6.76469 -0.157755 0.675161 -29.2988 -0.37928 0.580419 -9.28616 -0.379286 0.580414 88.5587 -37.2314 -106.878 30.9385 17.0602 -0.41459 -34.0297 -8.00477 -85.6351 -33.6984 7.7504 -38.0404 -82.8679 -6.65505 81.3808 -13.101 8.40219 -32.1309 39.7586 19.8923 -56.957 26.4571 -14.9607 -52.3636 44.0983 -3.12432 -25.0631 -12.719 9.70319 10.5295 
